<?xml version="1.0" encoding="utf-8"?>
<!-- Generator: Adobe Illustrator 16.0.0, SVG Export Plug-In . SVG Version: 6.00 Build 0)  -->
<!DOCTYPE svg PUBLIC "-//W3C//DTD SVG 1.1//EN" "http://www.w3.org/Graphics/SVG/1.1/DTD/svg11.dtd">
<svg version="1.1" id="Layer_1" xmlns="http://www.w3.org/2000/svg" xmlns:xlink="http://www.w3.org/1999/xlink" x="0px" y="0px"
	 width="1179.359px" height="1038.961px" viewBox="0 0 1179.359 1038.961" enable-background="new 0 0 1179.359 1038.961"
	 xml:space="preserve">
<line fill="none" stroke="#A7A9AC" stroke-width="4" stroke-miterlimit="10" x1="483.117" y1="544.854" x2="483.117" y2="864.04"/>
<line fill="none" stroke="#A7A9AC" stroke-width="4" stroke-miterlimit="10" x1="-79.1" y1="787.429" x2="-79.1" y2="864.04"/>
<line fill="none" stroke="#A7A9AC" stroke-width="4" stroke-miterlimit="10" x1="14.604" y1="767.438" x2="14.604" y2="864.04"/>
<line fill="none" stroke="#A7A9AC" stroke-width="4" stroke-miterlimit="10" x1="108.306" y1="747.006" x2="108.306" y2="864.04"/>
<line fill="none" stroke="#A7A9AC" stroke-width="4" stroke-miterlimit="10" x1="202.009" y1="710.816" x2="202.009" y2="864.04"/>
<line fill="none" stroke="#A7A9AC" stroke-width="4" stroke-miterlimit="10" x1="389.415" y1="616.966" x2="389.415" y2="864.04"/>
<line fill="none" stroke="#A7A9AC" stroke-width="4" stroke-miterlimit="10" x1="295.712" y1="670.838" x2="295.712" y2="864.04"/>
<line fill="none" stroke="#A7A9AC" stroke-width="4" stroke-miterlimit="10" x1="634.306" y1="544.854" x2="634.306" y2="864.04"/>
<line fill="none" stroke="#A7A9AC" stroke-width="4" stroke-miterlimit="10" x1="1196.523" y1="787.429" x2="1196.523" y2="864.04"/>
<line fill="none" stroke="#A7A9AC" stroke-width="4" stroke-miterlimit="10" x1="1102.82" y1="767.438" x2="1102.82" y2="864.04"/>
<line fill="none" stroke="#A7A9AC" stroke-width="4" stroke-miterlimit="10" x1="1009.117" y1="747.006" x2="1009.117" y2="864.04"/>
<line fill="none" stroke="#A7A9AC" stroke-width="4" stroke-miterlimit="10" x1="915.415" y1="710.816" x2="915.415" y2="864.04"/>
<line fill="none" stroke="#A7A9AC" stroke-width="4" stroke-miterlimit="10" x1="728.009" y1="616.966" x2="728.009" y2="864.04"/>
<line fill="none" stroke="#A7A9AC" stroke-width="4" stroke-miterlimit="10" x1="821.712" y1="670.838" x2="821.712" y2="864.04"/>
<path fill="none" stroke="#A7A9AC" stroke-width="4" stroke-miterlimit="10" d="M560.629,459.946
	c0,0,172.905,340.898,960.362,358.681"/>
<path fill="none" stroke="#A7A9AC" stroke-width="4" stroke-miterlimit="10" d="M554.251,459.946
	c0,0-172.906,340.898-960.363,358.681"/>
<g>
	<line fill="none" stroke="#FFFFFF" stroke-width="4" stroke-miterlimit="10" x1="518.417" y1="546.224" x2="518.417" y2="865.41"/>
	<line fill="none" stroke="#FFFFFF" stroke-width="4" stroke-miterlimit="10" x1="-43.801" y1="788.8" x2="-43.801" y2="865.41"/>
	<line fill="none" stroke="#FFFFFF" stroke-width="4" stroke-miterlimit="10" x1="49.902" y1="768.809" x2="49.902" y2="865.41"/>
	<line fill="none" stroke="#FFFFFF" stroke-width="4" stroke-miterlimit="10" x1="143.605" y1="748.375" x2="143.605" y2="865.41"/>
	<line fill="none" stroke="#FFFFFF" stroke-width="4" stroke-miterlimit="10" x1="237.308" y1="712.187" x2="237.308" y2="865.41"/>
	<line fill="none" stroke="#FFFFFF" stroke-width="4" stroke-miterlimit="10" x1="424.714" y1="618.336" x2="424.714" y2="865.41"/>
	<line fill="none" stroke="#FFFFFF" stroke-width="4" stroke-miterlimit="10" x1="331.011" y1="672.207" x2="331.011" y2="865.41"/>
	<line fill="none" stroke="#FFFFFF" stroke-width="4" stroke-miterlimit="10" x1="669.604" y1="546.224" x2="669.604" y2="865.41"/>
	<line fill="none" stroke="#FFFFFF" stroke-width="4" stroke-miterlimit="10" x1="1231.822" y1="788.8" x2="1231.822" y2="865.41"/>
	
		<line fill="none" stroke="#FFFFFF" stroke-width="4" stroke-miterlimit="10" x1="1138.118" y1="768.809" x2="1138.118" y2="865.41"/>
	
		<line fill="none" stroke="#FFFFFF" stroke-width="4" stroke-miterlimit="10" x1="1044.417" y1="748.375" x2="1044.417" y2="865.41"/>
	<line fill="none" stroke="#FFFFFF" stroke-width="4" stroke-miterlimit="10" x1="950.714" y1="712.187" x2="950.714" y2="865.41"/>
	<line fill="none" stroke="#FFFFFF" stroke-width="4" stroke-miterlimit="10" x1="763.308" y1="618.336" x2="763.308" y2="865.41"/>
	<line fill="none" stroke="#FFFFFF" stroke-width="4" stroke-miterlimit="10" x1="857.011" y1="672.207" x2="857.011" y2="865.41"/>
</g>
<polygon fill="#795E30" points="563.338,459.946 553.338,459.946 546.64,993.98 570.749,993.98 "/>
<rect x="-176.732" y="856.405" fill="#F2BC5F" width="1369.062" height="8.999"/>
<path fill="none" stroke="#FFFFFF" stroke-width="4" stroke-miterlimit="10" d="M595.447,459.946
	c0,0,172.906,340.898,960.363,358.681"/>
<path fill="none" stroke="#FFFFFF" stroke-width="4" stroke-miterlimit="10" d="M590.011,459.946
	c0,0-172.906,340.898-960.363,358.681"/>
<polygon fill="#F2BC5F" points="596.447,458.946 586.447,458.946 579.749,1003.481 603.858,1003.481 "/>
</svg>
