<?xml version="1.0" encoding="utf-8"?>
<!-- Generator: Adobe Illustrator 16.0.0, SVG Export Plug-In . SVG Version: 6.00 Build 0)  -->
<!DOCTYPE svg PUBLIC "-//W3C//DTD SVG 1.1//EN" "http://www.w3.org/Graphics/SVG/1.1/DTD/svg11.dtd">
<svg version="1.1" id="Layer_1" xmlns="http://www.w3.org/2000/svg" xmlns:xlink="http://www.w3.org/1999/xlink" x="0px" y="0px"
	 width="1179.36px" height="1038.96px" viewBox="0 0 1179.36 1038.96" enable-background="new 0 0 1179.36 1038.96"
	 xml:space="preserve">
<rect y="417.778" fill="#203972" width="1179" height="621.182"/>
<rect x="790.855" y="132.603" fill="#16425B" width="99.356" height="299.208"/>
<rect x="529.131" y="70.993" fill="#16425B" width="92.769" height="360.817"/>
<rect x="593.546" y="141.877" fill="#3A7CA5" width="134.472" height="289.933"/>
<rect x="702.155" y="70.993" fill="#3A7CA5" width="113.91" height="360.817"/>
<rect x="365.677" y="186.438" fill="#343552" width="163.454" height="245.372"/>
<rect x="392.802" y="90.604" fill="#3A7CA5" width="105.852" height="341.206"/>
<rect x="907.896" y="179.1" fill="#343552" width="90.256" height="252.71"/>
<path fill="#3A7CA5" d="M936.539,179.1c-25.312-41.998-87.364-77.996-87.364-77.996v330.707h106.232
	C955.407,431.811,961.851,221.098,936.539,179.1z"/>
<rect x="992.25" y="70.993" fill="#16425B" width="149.162" height="360.818"/>
<path fill="#81C3D7" d="M2.123,361.758c0,0,14.934,3.317,28.208-8.297c13.273-11.615,8.296-29.868,8.296-29.868
	s3.318,7.075,19.912,19.302s8.295,17.203,24.89,8.906c16.594-8.297,0-33.186,0-33.186l16.594,24.889c0,0-9.956-4.539,9.956-3.099
	c19.912,1.44,18.667-21.79,18.667-21.79l7.882,36.506c0,0,11.614-23.232,6.636-36.506s3.32,17.031,11.616,21.79
	c8.295,4.759,8.295,4.759,8.295,4.759s6.422-1.66,14.827-21.571c8.405-19.911-6.745,19.913,0,21.571
	c6.745,1.66,6.745,1.66,6.745,1.66s1.66-6.638,1.66-24.891c0-18.252,0-18.252,0-18.252l0,0c0,0,9.956,41.482,23.229,41.482
	c13.274,0,17.423-14.104,19.912-22.4c2.489-8.297-2.491,19.082,5.807,24.061c8.298,4.977,5.807-19.912,4.978-24.891
	c-0.829-4.978,10.787,25.719,23.232,21.57c12.445-4.146,19.081-22.4,19.081-22.4s-1.658,31.527,5.809,31.527
	s48.122-16.594,44.802-29.038s5.807,56.416,18.251,52.269c12.445-4.148,174.228-3.318,174.228-3.318l-22.4,66.079l-634.29,8.999
	v-60.979L2.123,361.758z"/>
<rect x="1038.635" y="141.877" fill="#3A7CA5" width="237.25" height="289.934"/>
</svg>
