<?xml version="1.0" encoding="utf-8"?>
<!-- Generator: Adobe Illustrator 16.0.0, SVG Export Plug-In . SVG Version: 6.00 Build 0)  -->
<!DOCTYPE svg PUBLIC "-//W3C//DTD SVG 1.1//EN" "http://www.w3.org/Graphics/SVG/1.1/DTD/svg11.dtd">
<svg version="1.1" id="Layer_1" xmlns="http://www.w3.org/2000/svg" xmlns:xlink="http://www.w3.org/1999/xlink" x="0px" y="0px"
	 width="768px" height="1098.886px" viewBox="0 0 768 1098.886" enable-background="new 0 0 768 1098.886" xml:space="preserve">
<g>
	<rect x="560.704" y="85.496" fill="#16425B" width="99.356" height="299.209"/>
	<rect x="298.979" y="23.886" fill="#16425B" width="92.769" height="360.818"/>
	<rect x="363.395" y="94.771" fill="#3A7CA5" width="134.472" height="289.934"/>
	<rect x="472.004" y="23.886" fill="#3A7CA5" width="113.91" height="360.818"/>
	<rect x="135.526" y="139.332" fill="#343552" width="163.453" height="245.373"/>
	<rect x="162.65" y="43.498" fill="#3A7CA5" width="105.852" height="341.207"/>
	<rect x="487.085" fill="#3A7CA5" width="84.774" height="32.998"/>
	<rect x="677.744" y="131.993" fill="#343552" width="90.256" height="252.711"/>
	<path fill="#3A7CA5" d="M706.388,131.993c-25.312-41.998-87.364-77.996-87.364-77.996v330.708h106.232
		C725.256,384.705,731.699,173.991,706.388,131.993z"/>
	<g>
		<path fill="#81C3D7" d="M48.237,276.275c-0.182-1.681-0.521-3.288-1.075-4.768C44.593,264.658,45.56,269.414,48.237,276.275z"/>
		<path fill="#81C3D7" d="M255.406,328.753c-9.259,3.087-16.68-34.238-18.505-48.424c-4.242,11.759-37.828,25.195-44.547,25.195
			c-7.467,0-5.809-31.527-5.809-31.527s-6.636,18.252-19.081,22.4c-12.445,4.147-24.061-26.549-23.232-21.57
			c0.829,4.977,3.32,29.867-4.978,24.889c-8.298-4.978-3.318-32.355-5.807-24.059c-2.489,8.297-6.638,22.4-19.912,22.4
			c-13.273,0-23.229-41.484-23.229-41.484s0,0,0,18.254c0,18.252-1.66,24.889-1.66,24.889s0,0-6.745-1.658
			c-6.745-1.659,8.405-41.484,0-21.572c-8.405,19.912-14.827,21.572-14.827,21.572s0,0-8.295-4.76
			c-4.015-2.303-8.03-10.589-10.541-17.023c1.449,13.4-7.711,31.738-7.711,31.738l-7.882-36.506c0,0,1.245,23.231-18.667,21.791
			c-7.308-0.528-10.584-0.25-11.814,0.313L0,290.367v106.926l407.233-5.777l22.4-66.078
			C429.634,325.437,267.851,324.607,255.406,328.753z"/>
		<path fill="#81C3D7" d="M237.155,276.486c-0.85-3.186-0.882-1.037-0.254,3.844C237.373,279.021,237.487,277.732,237.155,276.486z"
			/>
	</g>
</g>
<rect y="384.705" fill="#203972" width="768" height="714.182"/>
</svg>
